<svg width="402" height="411" fill="none" xmlns="http://www.w3.org/2000/svg"><path d="M193.411 131.543c1.659-2.49 4.365-3.932 7.333-3.932 2.88 0 5.63 1.442 7.245 3.845.218.305.436.699.611 1.092l94.446 163.754h36.269L214.579 79.944a15.698 15.698 0 0 0-13.835-8.258c-5.587 0-10.78 3.015-13.617 7.864l-.48.787L62.129 296.259h36.268l94.534-163.886c.131-.306.306-.568.48-.83z" fill="#4ABC79"/><path d="M394.973 284.581L255.063 44.975h.044l-12.253-20.963C234.207 9.192 218.044 0 200.751 0c-17.293 0-33.413 9.193-42.103 24.012l-4.78 8.205L6.485 284.58c-8.647 14.82-8.647 33.248 0 48.025 8.646 14.82 24.766 24.012 42.06 24.012l39.583.043 2.216-.043h77.863c9.341.387 16.641 7.904 16.641 17.096V411h31.284v-37.286c0-26.503-21.812-48.067-48.621-48.067H48.241c-6.04-.129-11.645-3.436-14.643-8.548a17.026 17.026 0 0 1 0-17.139L185.934 39.133c3.129-5.112 8.821-8.29 14.86-8.29 6.04 0 11.732 3.178 14.86 8.29l152.293 260.784a17.026 17.026 0 0 1 0 17.139c-2.998 5.112-8.603 8.419-14.599 8.548h-53.531c-6.17 0-11.949-3.307-15.034-8.591l-70.215-120.276c-2.737-5.026-8.038-8.119-13.774-8.119a15.798 15.798 0 0 0-13.556 7.732l-.478.774-58.788 100.645h36.107l28.894-49.313c.131-.301.304-.559.478-.816 1.651-2.449 4.345-3.866 7.3-3.866 2.867 0 5.605 1.417 7.212 3.78.218.3.435.687.609 1.074l49.055 84.021c8.647 14.82 24.767 24.012 42.06 24.012h10.602l-.044.043h42.538c17.293 0 33.413-9.235 42.06-24.012a47.549 47.549 0 0 0 .13-48.111z" fill="#4ABC79"/></svg>