<svg width="84" height="86" fill="none" xmlns="http://www.w3.org/2000/svg"><path d="M40.47 27.525a1.834 1.834 0 0 1 3.05-.018c.046.063.092.146.128.228L63.411 62H71L44.9 16.728A3.285 3.285 0 0 0 42.005 15a3.31 3.31 0 0 0-2.85 1.646l-.1.164L13 61.99h7.589l19.78-34.292c.028-.064.065-.118.101-.173z" fill="#539266"/><path d="M82.646 59.547L53.371 9.411h.009l-2.564-4.387C49.006 1.924 45.625 0 42.006 0c-3.618 0-6.991 1.923-8.81 5.024l-1 1.717L1.357 59.547a9.98 9.98 0 0 0 0 10.05c1.81 3.1 5.182 5.024 8.8 5.024l8.283.009.464-.01h16.292c1.955.082 3.483 1.655 3.483 3.578V86h6.546v-7.802c0-5.546-4.564-10.058-10.174-10.058H10.094a3.664 3.664 0 0 1-3.064-1.788 3.563 3.563 0 0 1 0-3.587L38.906 8.188a3.664 3.664 0 0 1 3.11-1.734c1.263 0 2.454.665 3.109 1.734L76.99 62.756a3.563 3.563 0 0 1 0 3.587 3.661 3.661 0 0 1-3.055 1.788h-11.2c-1.292 0-2.5-.692-3.146-1.797L44.897 41.166a3.276 3.276 0 0 0-2.882-1.698c-1.163 0-2.245.62-2.836 1.617l-.1.162-12.302 21.06h7.556l6.046-10.319c.027-.063.064-.117.1-.17.345-.513.909-.81 1.527-.81.6 0 1.173.297 1.51.791.045.063.09.144.127.225l10.264 17.581c1.81 3.101 5.183 5.025 8.801 5.025h2.219l-.01.009h8.901c3.619 0 6.992-1.933 8.801-5.025a9.95 9.95 0 0 0 .027-10.067z" fill="#539266"/></svg>