<svg width="35" height="24" fill="none" xmlns="http://www.w3.org/2000/svg"><rect x="1" y=".5" width="33" height="23" rx="3.5" fill="#fff" stroke="#D9D9D9"/><path fill-rule="evenodd" clip-rule="evenodd" d="M17.68 16.83a6.802 6.802 0 0 1-4.4 1.6c-3.744 0-6.78-3-6.78-6.7s3.036-6.7 6.78-6.7a6.81 6.81 0 0 1 4.4 1.6 6.802 6.802 0 0 1 4.398-1.6c3.744 0 6.78 3 6.78 6.7s-3.036 6.7-6.78 6.7a6.802 6.802 0 0 1-4.399-1.6z" fill="#ED0006"/><path fill-rule="evenodd" clip-rule="evenodd" d="M17.679 16.83a6.653 6.653 0 0 0 2.383-5.1c0-2.042-.925-3.87-2.383-5.1a6.802 6.802 0 0 1 4.398-1.6c3.744 0 6.78 3 6.78 6.7s-3.035 6.7-6.78 6.7a6.803 6.803 0 0 1-4.398-1.6z" fill="#F9A000"/><path fill-rule="evenodd" clip-rule="evenodd" d="M17.68 16.83a6.653 6.653 0 0 0 2.381-5.1c0-2.042-.924-3.87-2.382-5.1a6.653 6.653 0 0 0-2.382 5.1c0 2.042.924 3.87 2.382 5.1z" fill="#FF5E00"/></svg>