<svg width="86" height="87" fill="none" xmlns="http://www.w3.org/2000/svg"><path d="M57.037 39.065a1.342 1.342 0 0 1-.95 2.294 1.343 1.343 0 0 1-.95-.393 17.16 17.16 0 0 0-24.271 0 1.344 1.344 0 0 1-1.9-1.9 19.85 19.85 0 0 1 28.07 0zM43 38.627a14.378 14.378 0 0 0-10.235 4.24 1.344 1.344 0 0 0 1.9 1.9 11.787 11.787 0 0 1 16.67 0 1.344 1.344 0 0 0 1.9-1.9A14.382 14.382 0 0 0 43 38.627zm0 5.375a9.042 9.042 0 0 0-6.434 2.665 1.343 1.343 0 1 0 1.9 1.9 6.412 6.412 0 0 1 9.068 0 1.344 1.344 0 0 0 1.9-1.9A9.04 9.04 0 0 0 43 44.002zm3.724 9.1a3.725 3.725 0 1 1-7.45-.001 3.725 3.725 0 0 1 7.45 0zm-2.687 0a1.037 1.037 0 1 0-2.074-.002 1.037 1.037 0 0 0 2.074.001zM86 44a7.185 7.185 0 0 1-14.244 1.343h-5.28a23.422 23.422 0 0 1-5.934 14.299l3.742 3.741a7.175 7.175 0 1 1-1.902 1.9l-3.74-3.74a23.42 23.42 0 0 1-14.298 5.933v5.28a7.186 7.186 0 1 1-2.688 0v-5.28a23.421 23.421 0 0 1-14.298-5.934l-3.74 3.74a7.187 7.187 0 0 1-11.024 9.124 7.186 7.186 0 0 1 9.122-11.023l3.741-3.741a23.42 23.42 0 0 1-5.933-14.299h-5.28a7.185 7.185 0 1 1 0-2.687h5.28a23.42 23.42 0 0 1 5.933-14.298l-3.74-3.742a7.186 7.186 0 1 1 1.9-1.9l3.74 3.741a23.42 23.42 0 0 1 14.3-5.934v-5.28a7.186 7.186 0 1 1 2.687 0v5.28a23.42 23.42 0 0 1 14.298 5.934l3.742-3.741a7.175 7.175 0 1 1 1.9 1.9l-3.742 3.742a23.42 23.42 0 0 1 5.934 14.298h5.28A7.185 7.185 0 0 1 86.001 44zM65.145 21.856a4.496 4.496 0 1 0 6.355-6.36 4.496 4.496 0 0 0-6.355 6.36zM43 12.684a4.498 4.498 0 1 0 0-8.996 4.498 4.498 0 0 0 0 8.996zm-22.144 9.172a4.499 4.499 0 1 0-6.362-6.362 4.499 4.499 0 0 0 6.362 6.362zM11.685 44a4.498 4.498 0 1 0-8.997 0 4.498 4.498 0 0 0 8.997 0zm10.49 25.324a4.5 4.5 0 1 0-8.999 0 4.5 4.5 0 0 0 8.999 0zm20.826 5.992a4.499 4.499 0 1 0 0 8.997 4.499 4.499 0 0 0 0-8.998zm25.324-10.488a4.498 4.498 0 1 0-.002 8.996 4.498 4.498 0 0 0 .002-8.996zM63.83 44a20.828 20.828 0 1 0-20.828 20.828A20.851 20.851 0 0 0 63.829 44zm19.484 0a4.498 4.498 0 1 0-8.996 0 4.498 4.498 0 0 0 8.996 0z" fill="#40AC6C"/></svg>