<svg width="87" height="87" fill="none" xmlns="http://www.w3.org/2000/svg"><path d="M81.2 0H5.8A5.8 5.8 0 0 0 0 5.8v40.6a5.8 5.8 0 0 0 5.8 5.8h8.103c.297.838.643 1.658 1.038 2.455a7.47 7.47 0 0 1 1.009 4.07 7.6 7.6 0 0 1-1.024 4.098 17.418 17.418 0 0 0 .015 15.757 7.554 7.554 0 0 1 1.009 4.07 4.35 4.35 0 1 0 8.7 0 16.286 16.286 0 0 0-1.885-7.887 7.571 7.571 0 0 1-1.015-4.076 7.669 7.669 0 0 1 1.034-4.135 16.192 16.192 0 0 0 1.866-7.827 15.919 15.919 0 0 0-1.26-6.525h13.713c.297.838.643 1.658 1.038 2.455a7.47 7.47 0 0 1 1.009 4.07 7.6 7.6 0 0 1-1.024 4.098 17.418 17.418 0 0 0 .015 15.757 7.554 7.554 0 0 1 1.009 4.07 4.35 4.35 0 1 0 8.7 0 16.286 16.286 0 0 0-1.885-7.887 7.571 7.571 0 0 1-1.015-4.076 7.669 7.669 0 0 1 1.034-4.135 16.192 16.192 0 0 0 1.866-7.827 15.919 15.919 0 0 0-1.26-6.525h13.713c.297.838.643 1.658 1.038 2.455a7.47 7.47 0 0 1 1.009 4.07 7.6 7.6 0 0 1-1.024 4.098 17.418 17.418 0 0 0 .015 15.757 7.554 7.554 0 0 1 1.009 4.07 4.35 4.35 0 1 0 8.7 0 16.286 16.286 0 0 0-1.885-7.887 7.571 7.571 0 0 1-1.015-4.076 7.669 7.669 0 0 1 1.034-4.135 16.192 16.192 0 0 0 1.866-7.827 15.919 15.919 0 0 0-1.26-6.525H81.2a5.8 5.8 0 0 0 5.8-5.8V5.8A5.8 5.8 0 0 0 81.2 0zM20.155 65.324a11.633 11.633 0 0 0 0 10.721 13.353 13.353 0 0 1 1.595 6.605 1.45 1.45 0 0 1-2.9 0 10.408 10.408 0 0 0-1.331-5.398 14.52 14.52 0 0 1 .025-13.178 10.339 10.339 0 0 0 1.306-5.349 10.303 10.303 0 0 0-1.331-5.398 13.401 13.401 0 0 1-1.569-6.564 13.466 13.466 0 0 1 1.595-6.614A10.337 10.337 0 0 0 18.85 34.8a1.45 1.45 0 0 0-1.45-1.45h-2.566a.303.303 0 0 1-.28-.187.436.436 0 0 1 .024-.452l5.465-7.917a.298.298 0 0 1 .514 0l5.465 7.917a.435.435 0 0 1 .024.452.304.304 0 0 1-.28.187H23.2a1.45 1.45 0 0 0-1.45 1.45 13.467 13.467 0 0 1-1.595 6.614 10.337 10.337 0 0 0-1.305 5.349 10.382 10.382 0 0 0 1.321 5.378 14.487 14.487 0 0 1-.014 13.183h-.002zm23.2 0a11.633 11.633 0 0 0 0 10.721 13.353 13.353 0 0 1 1.595 6.605 1.45 1.45 0 0 1-2.9 0 10.408 10.408 0 0 0-1.331-5.398 14.52 14.52 0 0 1 .025-13.178 10.339 10.339 0 0 0 1.306-5.349 10.303 10.303 0 0 0-1.331-5.398 13.401 13.401 0 0 1-1.569-6.564 13.466 13.466 0 0 1 1.595-6.614A10.337 10.337 0 0 0 42.05 34.8a1.45 1.45 0 0 0-1.45-1.45h-2.567a.303.303 0 0 1-.28-.187.435.435 0 0 1 .025-.452l5.465-7.917a.298.298 0 0 1 .514 0l5.465 7.917a.435.435 0 0 1 .024.452.304.304 0 0 1-.28.187H46.4a1.45 1.45 0 0 0-1.45 1.45 13.467 13.467 0 0 1-1.595 6.614 10.337 10.337 0 0 0-1.305 5.349 10.383 10.383 0 0 0 1.32 5.378 14.486 14.486 0 0 1-.015 13.183zm23.2 0a11.633 11.633 0 0 0 0 10.721 13.353 13.353 0 0 1 1.595 6.605 1.45 1.45 0 0 1-2.9 0 10.408 10.408 0 0 0-1.331-5.398 14.52 14.52 0 0 1 .025-13.178 10.339 10.339 0 0 0 1.306-5.349 10.303 10.303 0 0 0-1.331-5.398 13.401 13.401 0 0 1-1.569-6.564 13.466 13.466 0 0 1 1.595-6.614A10.337 10.337 0 0 0 65.25 34.8a1.45 1.45 0 0 0-1.45-1.45h-2.566a.303.303 0 0 1-.28-.187.435.435 0 0 1 .024-.452l5.465-7.917a.298.298 0 0 1 .514 0l5.465 7.917a.435.435 0 0 1 .024.452.304.304 0 0 1-.28.187H69.6a1.45 1.45 0 0 0-1.45 1.45 13.467 13.467 0 0 1-1.595 6.614 10.337 10.337 0 0 0-1.305 5.349 10.382 10.382 0 0 0 1.321 5.378 14.487 14.487 0 0 1-.016 13.183zM84.1 46.4a2.9 2.9 0 0 1-2.9 2.9H68.495a7.686 7.686 0 0 1-.345-2.537 7.685 7.685 0 0 1 1.048-4.149A16.226 16.226 0 0 0 71 36.25h1.16a3.215 3.215 0 0 0 2.848-1.74 3.335 3.335 0 0 0-.204-3.45l-5.467-7.916a3.198 3.198 0 0 0-5.287 0l-5.466 7.916a3.335 3.335 0 0 0-.204 3.45 3.214 3.214 0 0 0 2.855 1.74h1.026a8.25 8.25 0 0 1-.958 2.699 16.293 16.293 0 0 0-1.852 7.814c-.002.848.054 1.696.168 2.537H45.295a7.686 7.686 0 0 1-.345-2.537 7.684 7.684 0 0 1 1.048-4.149A16.228 16.228 0 0 0 47.8 36.25h1.16a3.215 3.215 0 0 0 2.848-1.74 3.336 3.336 0 0 0-.204-3.45l-5.467-7.916a3.198 3.198 0 0 0-5.287 0l-5.466 7.916a3.336 3.336 0 0 0-.205 3.45 3.214 3.214 0 0 0 2.855 1.74h1.027a8.25 8.25 0 0 1-.958 2.699 16.293 16.293 0 0 0-1.852 7.814c-.002.848.054 1.696.168 2.537H22.095a7.686 7.686 0 0 1-.345-2.537 7.685 7.685 0 0 1 1.048-4.149A16.226 16.226 0 0 0 24.6 36.25h1.16a3.215 3.215 0 0 0 2.848-1.74 3.336 3.336 0 0 0-.204-3.45l-5.467-7.916a3.198 3.198 0 0 0-5.287 0l-5.466 7.916a3.336 3.336 0 0 0-.197 3.45 3.215 3.215 0 0 0 2.848 1.74h1.026a8.25 8.25 0 0 1-.958 2.699 16.293 16.293 0 0 0-1.852 7.814c-.002.848.054 1.696.168 2.537H5.8a2.9 2.9 0 0 1-2.9-2.9V5.8a2.9 2.9 0 0 1 2.9-2.9h75.4a2.9 2.9 0 0 1 2.9 2.9v40.6z" fill="#40AC6C"/></svg>