<svg width="86" height="86" fill="none" xmlns="http://www.w3.org/2000/svg"><path d="M71.322 1.26H60.984v7.81c0 .84.681 1.522 1.523 1.522h.163c.412 0 .8-.173 1.092-.463a4.243 4.243 0 1 1 3.525 7.217 4.235 4.235 0 0 1-3.52-1.196 1.564 1.564 0 0 0-1.098-.468h-.162c-.841 0-1.523.682-1.523 1.523v7.81h7.81c.84 0 1.522.681 1.522 1.522v.163c0 .414-.176.803-.468 1.098a4.235 4.235 0 0 0-1.196 3.52 4.243 4.243 0 1 0 7.217-3.525 1.553 1.553 0 0 1-.463-1.093v-.163c0-.84.682-1.523 1.523-1.523h7.81V2.957c0-.938-.76-1.697-1.698-1.697h-5.834M11.636 84.74h13.377v-7.808c0-.842-.683-1.524-1.524-1.524h-.162c-.413 0-.801.173-1.093.463a4.243 4.243 0 1 1-.004-6.021c.294.292.683.468 1.097.468h.162c.841 0 1.523-.682 1.523-1.524v-7.808h-7.809a1.523 1.523 0 0 1-1.523-1.523V59.3c0-.414.176-.803.468-1.097a4.236 4.236 0 0 0 1.196-3.521 4.243 4.243 0 1 0-7.217 3.525c.29.292.463.68.463 1.093v.163c0 .84-.682 1.523-1.523 1.523h-7.81v22.057c0 .938.76 1.697 1.698 1.697h2.798m34.354-71.433h1.008m5.636 0h5.323m2.819 0H55.9m16.791 26.802v1.008m0 5.636v5.323m0 2.818v1.008M45.89 72.693h-1.007m-5.637 0h-5.323m-2.818 0h-1.008M13.305 45.891v-1.008m0-5.636v-5.323m0-2.818v-1.008M68.652 67.29a4.236 4.236 0 0 1 1.196-3.521c.292-.294.468-.684.468-1.098v-.163c0-.84-.682-1.522-1.523-1.522h-7.81v7.809c0 .841-.681 1.523-1.522 1.523h-.162c-.415 0-.804-.176-1.098-.468a4.236 4.236 0 0 0-3.521-1.196 4.243 4.243 0 1 0 3.525 7.217c.292-.29.68-.463 1.093-.463h1.686v9.332H83.04c.938 0 1.697-.76 1.697-1.696V60.986H76.93c-.841 0-1.523.681-1.523 1.523v.163c0 .412.173.8.463 1.092a4.243 4.243 0 1 1-7.217 3.525zM17.344 18.71a4.236 4.236 0 0 1-1.196 3.521 1.565 1.565 0 0 0-.468 1.098v.162c0 .842.682 1.523 1.523 1.523h7.81v-7.809c0-.841.681-1.523 1.522-1.523h.163c.414 0 .803.176 1.098.468a4.236 4.236 0 0 0 3.52 1.196 4.243 4.243 0 1 0-3.525-7.217c-.292.29-.68.463-1.093.463h-.163a1.523 1.523 0 0 1-1.523-1.523V1.26H2.956c-.938 0-1.697.76-1.697 1.697v22.058h7.81c.84 0 1.522-.681 1.522-1.523v-.163c0-.412-.173-.8-.463-1.092a4.243 4.243 0 1 1 7.217-3.525zm25.654 27.57a3.279 3.279 0 1 1 0-6.557 3.279 3.279 0 0 1 0 6.557zM56.64 43c0-.537-.03-1.066-.091-1.587a1.79 1.79 0 0 1 .872-1.765l2.654-1.533a1.795 1.795 0 0 0 .657-2.452l-2.512-4.352a1.795 1.795 0 0 0-2.452-.657l-2.657 1.534c-.622.359-1.393.3-1.97-.13a13.625 13.625 0 0 0-2.73-1.579 1.81 1.81 0 0 1-1.104-1.657V25.77c0-.991-.804-1.795-1.795-1.795h-5.026c-.991 0-1.795.804-1.795 1.795v3.053c0 .725-.44 1.37-1.105 1.657a13.63 13.63 0 0 0-2.73 1.58 1.792 1.792 0 0 1-1.97.129l-2.655-1.534a1.795 1.795 0 0 0-2.452.657l-2.513 4.352a1.795 1.795 0 0 0 .657 2.452l2.655 1.533a1.79 1.79 0 0 1 .871 1.765 13.786 13.786 0 0 0 0 3.174 1.79 1.79 0 0 1-.871 1.765l-2.655 1.533a1.795 1.795 0 0 0-.657 2.452l2.513 4.352a1.795 1.795 0 0 0 2.452.657l2.656-1.533c.622-.36 1.393-.3 1.97.129a13.63 13.63 0 0 0 2.73 1.579 1.81 1.81 0 0 1 1.104 1.657v3.053c0 .991.804 1.795 1.795 1.795h5.026c.991 0 1.795-.804 1.795-1.795v-3.053c0-.725.44-1.37 1.105-1.657.974-.422 1.89-.953 2.73-1.58a1.792 1.792 0 0 1 1.97-.129l2.656 1.534a1.795 1.795 0 0 0 2.452-.657l2.512-4.352a1.795 1.795 0 0 0-.657-2.452l-2.654-1.533a1.79 1.79 0 0 1-.872-1.765c.06-.52.091-1.05.091-1.587zM43 51.484a8.484 8.484 0 1 1-.001-16.968 8.484 8.484 0 0 1 0 16.968z" stroke="#40AC6C" stroke-width="2" stroke-miterlimit="10" stroke-linecap="round" stroke-linejoin="round"/></svg>