<svg width="35" height="24" fill="none" xmlns="http://www.w3.org/2000/svg"><rect x="1" y=".5" width="33" height="23" rx="3.5" fill="#fff" stroke="#D9D9D9"/><path fill-rule="evenodd" clip-rule="evenodd" d="M15.114 18.448l.22-1.449-.49-.012h-2.349l1.632-10.693a.143.143 0 0 1 .045-.084.13.13 0 0 1 .087-.033h3.96c1.314 0 2.22.282 2.694.84.222.262.364.536.432.837.072.316.073.693.003 1.153l-.005.034v.295l.222.13c.187.102.336.22.45.354.19.224.312.508.364.845.054.347.036.76-.052 1.227-.101.538-.265 1.006-.486 1.389a2.823 2.823 0 0 1-.77.872c-.294.216-.643.38-1.038.484a5.016 5.016 0 0 1-1.296.155h-.308a.916.916 0 0 0-.603.229.973.973 0 0 0-.314.579l-.023.13-.39 2.555-.018.093c-.004.03-.012.045-.024.055a.064.064 0 0 1-.04.015h-1.903z" fill="#28356A"/><path fill-rule="evenodd" clip-rule="evenodd" d="M21.776 9.075a7.048 7.048 0 0 1-.04.24c-.522 2.77-2.309 3.727-4.59 3.727h-1.162a.57.57 0 0 0-.557.494l-.763 5.003a.304.304 0 0 0 .293.355h2.06a.501.501 0 0 0 .49-.431l.02-.108.388-2.545.025-.14a.5.5 0 0 1 .49-.432h.308c1.996 0 3.558-.838 4.015-3.261.19-1.013.092-1.858-.413-2.453a1.978 1.978 0 0 0-.564-.45z" fill="#298FC2"/><path fill-rule="evenodd" clip-rule="evenodd" d="M21.23 8.85a3.991 3.991 0 0 0-.508-.117 6.251 6.251 0 0 0-1.024-.077h-3.103a.48.48 0 0 0-.214.05.51.51 0 0 0-.275.383l-.66 4.321-.02.126a.57.57 0 0 1 .558-.494h1.162c2.281 0 4.067-.957 4.59-3.727.015-.082.028-.162.04-.24a2.729 2.729 0 0 0-.546-.225z" fill="#22284F"/><path fill-rule="evenodd" clip-rule="evenodd" d="M16.106 9.089a.508.508 0 0 1 .275-.382.479.479 0 0 1 .214-.05h3.103c.367 0 .71.024 1.024.077a4.544 4.544 0 0 1 .508.116l.117.037c.154.053.297.116.43.188.154-1.024-.002-1.721-.538-2.353-.59-.695-1.656-.992-3.02-.992H14.26a.572.572 0 0 0-.559.494l-1.649 10.804a.348.348 0 0 0 .336.406h2.444l1.274-8.345z" fill="#28356A"/></svg>