<svg width="265" height="118" fill="none" xmlns="http://www.w3.org/2000/svg"><path d="M187.682 75a2.08 2.08 0 0 0-.247-.514 1.602 1.602 0 0 0-.361-.392 1.514 1.514 0 0 0-.472-.247 1.877 1.877 0 0 0-.579-.086 1.73 1.73 0 0 0-.941.267 1.85 1.85 0 0 0-.673.787c-.167.347-.25.772-.25 1.276s.084.929.253 1.276c.168.346.397.608.685.786.287.178.611.267.971.267.334 0 .627-.07.881-.213.256-.144.454-.346.596-.608.144-.263.216-.573.216-.928l.216.045h-1.75v-.625h2.216v.625c0 .48-.102.896-.307 1.25a2.115 2.115 0 0 1-.841.824c-.356.193-.765.29-1.227.29-.515 0-.968-.122-1.358-.364a2.453 2.453 0 0 1-.909-1.034c-.216-.447-.324-.978-.324-1.591 0-.46.062-.874.185-1.242.125-.369.301-.683.528-.943.228-.26.497-.458.807-.596a2.497 2.497 0 0 1 1.026-.208c.307 0 .593.047.858.14a2.309 2.309 0 0 1 1.238.988c.14.231.237.488.29.77h-.727zm1.968 4v-5.818h2.034c.405 0 .74.07 1.003.21.263.138.459.325.588.56.129.233.193.491.193.775 0 .25-.044.457-.133.62a1.047 1.047 0 0 1-.347.386 1.573 1.573 0 0 1-.463.21V76c.178.011.357.074.537.188.18.113.33.276.451.488.122.212.182.472.182.778 0 .292-.066.555-.199.788a1.37 1.37 0 0 1-.627.553c-.286.137-.659.205-1.117.205h-2.102zm.704-.625h1.398c.46 0 .787-.089.98-.267a.857.857 0 0 0 .293-.654c0-.196-.05-.378-.151-.545a1.084 1.084 0 0 0-.429-.403 1.342 1.342 0 0 0-.659-.154h-1.432v2.023zm0-2.636h1.307c.212 0 .404-.042.574-.125.172-.084.309-.201.409-.353a.934.934 0 0 0 .154-.534.885.885 0 0 0-.267-.65c-.178-.18-.461-.27-.847-.27h-1.33v1.932zm5.408 2.465l-.045.307a6.449 6.449 0 0 1-.148.694 13.88 13.88 0 0 1-.202.696c-.07.217-.128.39-.173.52h-.511l.096-.48c.04-.2.08-.422.119-.668.042-.245.076-.495.103-.75l.034-.319h.727zm4.288-5.022V79h-.705v-5.818h.705zM201.462 79v-5.818h3.512v.625h-2.807v1.966h2.625v.625h-2.625v1.977h2.852V79h-3.557zm5.691-.796l-.046.307a6.2 6.2 0 0 1-.147.694 13.88 13.88 0 0 1-.202.696c-.07.217-.128.39-.173.52h-.512l.097-.48a18.38 18.38 0 0 0 .221-1.418l.034-.319h.728zm-23.448 6.978h.84l1.978 4.83h.068l1.977-4.83h.841V91h-.659v-4.42h-.057L186.875 91h-.636l-1.819-4.42h-.056V91h-.659v-5.818zm6.799.625v-.625h4.363v.625h-1.829V91h-.705v-5.193h-1.829zm6.086 4.397l-.045.307a6.215 6.215 0 0 1-.148.694c-.064.246-.132.478-.202.696-.07.217-.128.39-.173.52h-.511l.096-.48c.04-.2.08-.422.12-.668.041-.245.075-.495.102-.75l.034-.319h.727zM204.855 87h-.704a1.473 1.473 0 0 0-.594-.92 1.596 1.596 0 0 0-.486-.24 1.943 1.943 0 0 0-.557-.079c-.352 0-.671.09-.957.267-.284.178-.511.44-.679.787-.167.347-.25.772-.25 1.276s.083.929.25 1.276c.168.346.395.608.679.786.286.178.605.267.957.267.193 0 .379-.026.557-.08.178-.052.34-.13.486-.235a1.487 1.487 0 0 0 .594-.923h.704a2.35 2.35 0 0 1-.29.798 2.18 2.18 0 0 1-1.224.972 2.618 2.618 0 0 1-.827.127c-.496 0-.937-.12-1.324-.363a2.5 2.5 0 0 1-.912-1.034c-.221-.447-.332-.978-.332-1.591 0-.614.111-1.144.332-1.591a2.5 2.5 0 0 1 .912-1.034 2.441 2.441 0 0 1 1.324-.364c.294 0 .569.043.827.128.259.085.493.21.702.375.208.163.382.362.522.597.14.233.237.499.29.798zm.639-1.818h.806l1.614 2.716h.068l1.614-2.716h.807l-2.103 3.42V91h-.704v-2.398l-2.102-3.42zm6.456 5.022l-.046.307a5.997 5.997 0 0 1-.148.694 12.92 12.92 0 0 1-.201.696c-.07.217-.128.39-.174.52h-.511l.097-.48c.039-.2.079-.422.119-.668.042-.245.076-.495.102-.75l.034-.319h.728zM183.705 103v-5.818h.704v2.59h3.102v-2.59h.705V103h-.705v-2.602h-3.102V103h-.704zm5.921 0v-5.818h.705v2.886h.068l2.614-2.886h.92l-2.443 2.625 2.443 3.193h-.852l-2.023-2.705-.727.819V103h-.705zm6.128-.795l-.045.306a6.261 6.261 0 0 1-.148.694c-.064.246-.132.478-.202.696-.07.217-.127.391-.173.519h-.511l.096-.48c.04-.199.08-.421.12-.667.041-.245.075-.495.102-.75l.034-.318h.727zm3.583-5.023h.841l1.978 4.829h.068l1.977-4.83h.841V103h-.659v-4.42h-.057l-1.818 4.42h-.637l-1.818-4.42h-.057V103h-.659v-5.818zm6.618 0h.806l1.614 2.716h.068l1.614-2.716h.807l-2.103 3.42V103h-.704v-2.398l-2.102-3.42zm6.456 5.023l-.046.306a6.041 6.041 0 0 1-.148.694 12.92 12.92 0 0 1-.201.696c-.07.217-.128.391-.174.519h-.511l.097-.48c.039-.199.079-.421.119-.667.042-.245.076-.495.102-.75l.034-.318h.728zm6.764-3.569a.892.892 0 0 0-.414-.67c-.243-.16-.54-.239-.892-.239a1.7 1.7 0 0 0-.677.125c-.191.084-.34.198-.448.344a.825.825 0 0 0-.159.497c0 .156.036.289.11.4a.98.98 0 0 0 .29.276c.118.072.241.132.369.18.129.045.248.082.356.11l.59.16c.152.039.321.094.506.164.188.07.367.166.537.287.172.119.314.273.426.46.112.188.168.418.168.69 0 .315-.083.599-.247.853a1.687 1.687 0 0 1-.716.605c-.313.149-.693.224-1.139.224-.417 0-.778-.067-1.083-.201a1.725 1.725 0 0 1-.716-.563 1.6 1.6 0 0 1-.292-.838h.727a.91.91 0 0 0 .221.545c.131.142.296.249.495.319.201.068.416.102.648.102.268 0 .51-.044.724-.131.214-.089.383-.212.508-.369a.876.876 0 0 0 .188-.557.68.68 0 0 0-.162-.471 1.184 1.184 0 0 0-.426-.296 4.49 4.49 0 0 0-.571-.199l-.716-.204c-.455-.131-.814-.318-1.08-.56-.265-.242-.397-.56-.397-.952 0-.326.088-.61.264-.852.178-.244.417-.434.716-.568a2.416 2.416 0 0 1 1.008-.205c.375 0 .709.067 1 .202.292.133.523.314.694.545.172.231.263.494.272.787h-.682zm5.897.364a2.01 2.01 0 0 0-.247-.514 1.564 1.564 0 0 0-.832-.64 1.879 1.879 0 0 0-.58-.085c-.344 0-.658.09-.94.267a1.84 1.84 0 0 0-.673.787c-.167.347-.25.772-.25 1.276s.084.929.253 1.275c.168.347.396.609.684.787.288.178.612.267.972.267.333 0 .627-.071.88-.213.256-.144.455-.346.597-.608.144-.263.216-.572.216-.929l.216.046h-1.75v-.625h2.216v.625c0 .479-.102.896-.307 1.25a2.123 2.123 0 0 1-.841.824c-.356.193-.765.29-1.227.29-.515 0-.968-.122-1.358-.364a2.456 2.456 0 0 1-.909-1.034c-.216-.447-.324-.977-.324-1.591 0-.46.061-.874.185-1.242.125-.369.301-.683.528-.943.227-.26.496-.458.807-.596.31-.139.652-.208 1.025-.208.307 0 .593.047.858.14a2.298 2.298 0 0 1 1.239.988c.14.231.237.488.29.77h-.728zM145.98 69.807v-.625h4.364v.625h-1.83V75h-.704v-5.193h-1.83zm5.292 6.83a1.469 1.469 0 0 1-.489-.08l.171-.591c.163.042.307.057.432.045a.518.518 0 0 0 .332-.167c.099-.099.188-.259.27-.48l.125-.341-1.614-4.387h.728l1.204 3.478h.046l1.204-3.478h.727l-1.852 5a1.865 1.865 0 0 1-.31.56 1.16 1.16 0 0 1-.429.332 1.319 1.319 0 0 1-.545.108zm4.021 0v-6h.648v.692h.08c.049-.075.117-.172.204-.29.089-.118.216-.225.381-.317.166-.095.392-.142.676-.142.367 0 .691.091.972.275.28.184.499.444.656.781.157.338.236.735.236 1.194 0 .462-.079.862-.236 1.201a1.856 1.856 0 0 1-.654.784 1.706 1.706 0 0 1-.963.276c-.28 0-.504-.046-.673-.14a1.243 1.243 0 0 1-.389-.32 4.158 4.158 0 0 1-.21-.302h-.057v2.307h-.671zm.659-3.819c0 .33.049.62.145.872.097.25.238.446.424.588.185.14.412.21.681.21.281 0 .515-.073.702-.221.19-.15.332-.35.426-.602.097-.254.145-.536.145-.847a2.29 2.29 0 0 0-.142-.83 1.285 1.285 0 0 0-.423-.587c-.188-.146-.423-.22-.708-.22-.272 0-.501.07-.687.208a1.245 1.245 0 0 0-.421.574c-.094.244-.142.53-.142.855zm6.046 2.273c-.421 0-.783-.093-1.088-.278a1.871 1.871 0 0 1-.702-.785c-.163-.337-.244-.729-.244-1.176 0-.447.081-.84.244-1.181.165-.343.394-.61.688-.802.295-.193.64-.29 1.034-.29.227 0 .451.038.673.114.222.076.423.199.605.37.182.168.327.391.435.67.108.278.162.621.162 1.028v.285h-3.364v-.58h2.682c0-.246-.049-.466-.148-.66a1.11 1.11 0 0 0-.415-.457 1.16 1.16 0 0 0-.63-.167 1.2 1.2 0 0 0-.693.199 1.31 1.31 0 0 0-.447.511c-.104.21-.156.436-.156.676v.386c0 .33.057.61.171.839.115.227.275.4.48.52.204.117.442.176.713.176.176 0 .335-.025.477-.074a1.02 1.02 0 0 0 .372-.228c.104-.102.185-.229.242-.38l.648.182c-.069.22-.183.412-.344.58-.161.164-.36.293-.597.385a2.212 2.212 0 0 1-.798.137zM171.143 71a2.08 2.08 0 0 0-.247-.514 1.602 1.602 0 0 0-.361-.392 1.514 1.514 0 0 0-.472-.247 1.877 1.877 0 0 0-.579-.086 1.73 1.73 0 0 0-.941.267 1.85 1.85 0 0 0-.673.787c-.167.347-.25.772-.25 1.276s.084.929.253 1.276c.168.346.397.608.685.786.287.178.611.267.971.267.333 0 .627-.07.881-.213a1.51 1.51 0 0 0 .596-.608c.144-.263.216-.573.216-.928l.216.045h-1.75v-.625h2.216v.625c0 .48-.102.896-.307 1.25a2.115 2.115 0 0 1-.841.824c-.356.193-.765.29-1.227.29-.515 0-.968-.122-1.358-.364a2.453 2.453 0 0 1-.909-1.034c-.216-.447-.324-.978-.324-1.591 0-.46.062-.874.185-1.242.125-.369.301-.683.528-.943.228-.26.496-.458.807-.596a2.497 2.497 0 0 1 1.026-.208c.306 0 .592.047.858.14a2.309 2.309 0 0 1 1.238.988c.14.231.237.488.29.77h-.727z" fill="#636363"/><path fill="#fff" stroke="#636363" d="M143.5 78.5h31v31h-31z"/><path fill="#636363" d="M148.564 100.261h6.957v4.174h-6.957zm13.913 0h6.957v4.174h-6.957zm-5.565-9.739v-6.957h4.174v6.957zM53.916 94v-5.818h3.51v.625H54.62v1.966h2.625v.625H54.62v1.977h2.852V94h-3.556zm7.44-1.784v-2.58h.67V94h-.67v-.739h-.046c-.102.222-.261.41-.477.566-.216.153-.489.23-.818.23a1.45 1.45 0 0 1-.727-.18 1.253 1.253 0 0 1-.5-.545c-.122-.244-.182-.552-.182-.923v-2.773h.67v2.728c0 .318.09.572.267.761.18.19.41.284.688.284.166 0 .336-.043.508-.128.175-.085.32-.216.438-.392.12-.176.179-.4.179-.673zM63.254 94v-4.364h.648v.66h.045c.08-.217.224-.392.432-.526a1.27 1.27 0 0 1 .705-.202 7.382 7.382 0 0 1 .352.011v.682a1.989 1.989 0 0 0-.156-.025 1.532 1.532 0 0 0-.253-.02c-.212 0-.401.044-.568.133a.98.98 0 0 0-.534.89V94h-.67zm4.617.09c-.394 0-.74-.093-1.037-.28a1.912 1.912 0 0 1-.693-.787c-.165-.337-.248-.731-.248-1.182 0-.455.083-.851.248-1.19a1.89 1.89 0 0 1 .693-.79 1.903 1.903 0 0 1 1.037-.282c.394 0 .738.094 1.034.282.297.187.528.45.693.79.167.339.25.735.25 1.19 0 .45-.083.845-.25 1.182-.165.337-.396.6-.693.787-.296.187-.64.28-1.034.28zm0-.601c.299 0 .545-.077.738-.23a1.36 1.36 0 0 0 .43-.606c.092-.25.139-.52.139-.812a2.34 2.34 0 0 0-.14-.815 1.375 1.375 0 0 0-.429-.611c-.193-.156-.439-.233-.738-.233-.3 0-.546.078-.739.233a1.374 1.374 0 0 0-.429.61 2.34 2.34 0 0 0-.14.816c0 .292.047.562.14.812.093.25.236.452.43.605.192.154.439.23.738.23zm3 2.147v-6h.648v.694h.08c.049-.076.117-.173.204-.29a1.2 1.2 0 0 1 .38-.318c.168-.095.393-.142.677-.142.368 0 .691.091.972.275.28.184.499.444.656.781.157.338.236.735.236 1.194 0 .462-.079.862-.236 1.201a1.86 1.86 0 0 1-.653.784 1.71 1.71 0 0 1-.964.276c-.28 0-.504-.046-.673-.14a1.25 1.25 0 0 1-.39-.32 4.304 4.304 0 0 1-.21-.302h-.056v2.307h-.67zm.66-3.818c0 .33.048.62.144.872.097.25.238.446.424.588.185.14.413.21.681.21.28 0 .515-.073.702-.221.19-.15.332-.35.426-.602.097-.254.145-.536.145-.847 0-.307-.047-.583-.142-.83a1.281 1.281 0 0 0-.423-.587c-.188-.146-.423-.22-.707-.22-.273 0-.502.07-.688.208a1.245 1.245 0 0 0-.42.574c-.095.244-.142.53-.142.855zm6.045 2.273c-.42 0-.783-.093-1.088-.278a1.87 1.87 0 0 1-.702-.785c-.163-.337-.244-.729-.244-1.176 0-.447.081-.84.244-1.181.165-.343.394-.61.688-.802.295-.193.64-.29 1.034-.29.227 0 .452.038.673.114.222.076.423.199.605.37.182.168.327.391.435.67.108.278.162.621.162 1.028v.285h-3.364v-.58h2.682c0-.246-.05-.466-.148-.66a1.114 1.114 0 0 0-1.045-.624 1.2 1.2 0 0 0-.693.199c-.194.13-.342.3-.446.511-.105.21-.157.436-.157.676v.386c0 .33.057.61.17.839.116.227.276.4.48.52.206.117.443.176.714.176.176 0 .335-.025.477-.074a1.01 1.01 0 0 0 .372-.228c.105-.102.185-.229.242-.38l.648.182c-.069.22-.183.412-.344.58-.161.164-.36.293-.597.385a2.211 2.211 0 0 1-.798.137zm15.029-24.284v-.625h4.364v.625h-1.83V75h-.704v-5.193h-1.83zm5.292 6.83a1.472 1.472 0 0 1-.489-.08l.17-.591c.164.042.308.057.433.045a.518.518 0 0 0 .332-.167c.099-.099.188-.259.27-.48l.125-.341-1.614-4.387h.728l1.204 3.478h.046l1.204-3.478h.727l-1.852 5a1.889 1.889 0 0 1-.31.56 1.16 1.16 0 0 1-.428.332 1.322 1.322 0 0 1-.546.108zm4.021 0v-6h.648v.692h.08c.049-.075.117-.172.204-.29.089-.118.216-.225.381-.317.166-.095.392-.142.676-.142.367 0 .691.091.972.275.28.184.499.444.656.781.157.338.236.735.236 1.194 0 .462-.079.862-.236 1.201a1.856 1.856 0 0 1-.654.784 1.706 1.706 0 0 1-.963.276c-.28 0-.504-.046-.673-.14a1.243 1.243 0 0 1-.389-.32 4.158 4.158 0 0 1-.21-.302h-.057v2.307h-.671zm.659-3.819c0 .33.049.62.145.872.097.25.238.446.424.588.185.14.412.21.681.21.281 0 .515-.073.702-.221.19-.15.332-.35.426-.602.097-.254.145-.536.145-.847a2.29 2.29 0 0 0-.142-.83 1.285 1.285 0 0 0-.423-.587c-.188-.146-.423-.22-.708-.22-.272 0-.501.07-.687.208a1.245 1.245 0 0 0-.421.574c-.094.244-.142.53-.142.855zm6.046 2.273c-.421 0-.783-.093-1.088-.278a1.871 1.871 0 0 1-.702-.785c-.163-.337-.244-.729-.244-1.176 0-.447.081-.84.244-1.181.165-.343.394-.61.688-.802.295-.193.64-.29 1.034-.29.227 0 .451.038.673.114.222.076.423.199.605.37.182.168.327.391.435.67.108.278.162.621.162 1.028v.285h-3.364v-.58h2.682c0-.246-.049-.466-.148-.66a1.11 1.11 0 0 0-.415-.457 1.16 1.16 0 0 0-.63-.167 1.2 1.2 0 0 0-.693.199 1.31 1.31 0 0 0-.447.511c-.104.21-.156.436-.156.676v.386c0 .33.057.61.171.839.115.227.275.4.48.52.204.117.442.176.713.176.176 0 .335-.025.477-.074a1.02 1.02 0 0 0 .372-.228c.104-.102.185-.229.242-.38l.648.182c-.069.22-.183.412-.344.58-.161.164-.36.293-.597.385a2.212 2.212 0 0 1-.798.137zM113.79 75v-5.818h3.489v.625h-2.784v1.966h2.523v.625h-2.523V75h-.705z"/><path fill="#fff" stroke="#636363" d="M89.5 78.5h31v31h-31z"/><rect x="91.783" y="80.783" width="26.435" height="26.435" rx="13.217" fill="#fff" stroke="#636363"/><rect x="97.848" y="92.413" width="3.174" height="3.174" rx="1.587" fill="#636363" stroke="#636363"/><rect x="108.979" y="92.413" width="3.174" height="3.174" rx="1.587" fill="#636363" stroke="#636363"/><path fill="#fff" stroke="#636363" stroke-width=".6" d="M104.605 81.083h.791v1.626h-.791zm0 24.348h.791v1.626h-.791z"/><path fill="#636363" d="M116.826 88.435h.348v4.174h-.348z"/><path fill="#636363" d="M116.826 92.609v-.348h1.391v.348zm-24-4.174h.348v4.174h-.348z"/><path fill="#636363" d="M91.784 92.609v-.348h1.39v.348zm25.042 2.782h.348v4.174h-.348z"/><path fill="#636363" d="M116.826 95.74v-.349h1.39v.348zm-24-.349h.348v4.174h-.348z"/><path fill="#636363" d="M91.783 95.74v-.349h1.39v.348zM183.705 27v-5.818h3.488v.625h-2.784v1.966h2.523v.625h-2.523V27h-.704zm4.695 0v-5.818h1.966c.454 0 .827.078 1.119.233.292.153.508.364.648.633.14.27.21.575.21.918 0 .343-.07.647-.21.912a1.48 1.48 0 0 1-.645.625c-.29.15-.66.224-1.111.224h-1.591v-.636h1.568c.311 0 .561-.046.75-.137.192-.09.33-.22.415-.386.087-.168.131-.37.131-.602 0-.233-.044-.437-.131-.61a.89.89 0 0 0-.417-.404c-.192-.097-.445-.145-.759-.145h-1.239V27h-.704zm2.738-2.614L192.57 27h-.818l-1.409-2.614h.795zm3.288 1.819l-.045.306a6.449 6.449 0 0 1-.148.694c-.064.246-.132.478-.202.696-.07.217-.128.39-.173.52h-.511l.096-.48c.04-.2.08-.422.119-.668.042-.245.076-.495.103-.75l.034-.319h.727zm3.583.795v-5.818h2.034c.406 0 .74.07 1.003.21.263.138.459.325.588.56.129.233.193.491.193.775 0 .25-.044.457-.133.62a1.038 1.038 0 0 1-.347.386 1.573 1.573 0 0 1-.463.21V24c.178.011.357.074.537.188.18.113.331.276.452.488.121.212.182.472.182.779 0 .291-.067.554-.199.787a1.377 1.377 0 0 1-.628.553c-.286.137-.658.205-1.116.205h-2.103zm.705-.625h1.398c.46 0 .786-.089.98-.267a.857.857 0 0 0 .292-.654c0-.196-.05-.378-.15-.545a1.098 1.098 0 0 0-.429-.403 1.348 1.348 0 0 0-.659-.154h-1.432v2.023zm0-2.636h1.307c.212 0 .403-.042.573-.125.173-.084.309-.201.41-.353a.934.934 0 0 0 .153-.534.885.885 0 0 0-.267-.65c-.178-.18-.46-.27-.847-.27h-1.329v1.932zM203.212 27v-5.818h3.512v.625h-2.807v1.966h2.625v.625h-2.625v1.977h2.852V27h-3.557zm5.691-.796l-.046.307a6.2 6.2 0 0 1-.147.694 13.88 13.88 0 0 1-.202.696c-.07.217-.128.39-.173.52h-.512l.097-.48a18.38 18.38 0 0 0 .221-1.418l.034-.319h.728zM183.705 39v-5.818h1.965c.457 0 .83.082 1.12.247.291.163.507.383.648.662.14.278.21.589.21.932 0 .342-.07.654-.21.934-.139.28-.353.504-.643.67-.289.166-.661.248-1.113.248h-1.409v-.625h1.386c.313 0 .564-.054.753-.162a.967.967 0 0 0 .412-.437c.087-.186.131-.395.131-.628a1.44 1.44 0 0 0-.131-.625.933.933 0 0 0-.415-.432c-.191-.106-.445-.16-.761-.16h-1.239V39h-.704zm5.078 0v-5.818h.704v5.193h2.705V39h-3.409zm5.409-.795l-.046.306a6.2 6.2 0 0 1-.147.694 13.88 13.88 0 0 1-.202.696c-.07.217-.128.39-.173.52h-.512l.097-.48a18.38 18.38 0 0 0 .221-1.418l.034-.319h.728zm6.765-3.569a.893.893 0 0 0-.415-.67c-.243-.16-.54-.239-.892-.239-.258 0-.483.042-.676.125a1.076 1.076 0 0 0-.449.344.825.825 0 0 0-.159.497.71.71 0 0 0 .111.4c.075.11.172.202.289.276.118.072.241.132.37.18.128.045.247.082.355.11l.591.16c.151.039.32.094.505.164.188.07.367.166.537.287.173.12.315.273.426.46.112.188.168.418.168.69 0 .315-.082.599-.247.853a1.685 1.685 0 0 1-.716.605c-.313.15-.692.224-1.139.224-.417 0-.778-.067-1.083-.201a1.73 1.73 0 0 1-.716-.563 1.61 1.61 0 0 1-.292-.838h.727a.91.91 0 0 0 .222.545c.13.142.295.249.494.319.201.068.417.102.648.102.269 0 .51-.044.724-.13.214-.09.384-.213.509-.37a.875.875 0 0 0 .187-.557.682.682 0 0 0-.162-.471 1.19 1.19 0 0 0-.426-.296 4.452 4.452 0 0 0-.571-.199l-.716-.204c-.454-.131-.814-.318-1.079-.56-.265-.242-.398-.56-.398-.952 0-.325.088-.61.264-.852.178-.244.417-.434.716-.568a2.418 2.418 0 0 1 1.009-.205c.375 0 .708.068 1 .202.291.133.522.314.693.545.172.232.263.494.272.787h-.681zM202.876 39v-5.818h.705v2.886h.068l2.614-2.886h.92l-2.443 2.625L207.183 39h-.852l-2.023-2.705-.727.819V39h-.705zm6.128-.795l-.045.306a6.215 6.215 0 0 1-.148.694c-.064.246-.132.478-.202.696-.07.217-.127.39-.173.52h-.511l.096-.48c.04-.2.08-.422.12-.668.041-.245.075-.495.102-.75l.034-.319h.727zM217.269 35h-.704a1.473 1.473 0 0 0-.594-.92 1.596 1.596 0 0 0-.486-.24 1.943 1.943 0 0 0-.557-.079c-.352 0-.671.09-.957.267-.284.178-.511.44-.679.787-.167.347-.25.772-.25 1.276s.083.929.25 1.276c.168.346.395.608.679.786.286.178.605.267.957.267.193 0 .379-.026.557-.08.178-.052.34-.13.486-.235a1.487 1.487 0 0 0 .594-.923h.704a2.328 2.328 0 0 1-.29.798 2.18 2.18 0 0 1-1.224.972 2.618 2.618 0 0 1-.827.128c-.496 0-.937-.122-1.324-.364a2.5 2.5 0 0 1-.912-1.034c-.221-.447-.332-.977-.332-1.591s.111-1.144.332-1.591a2.5 2.5 0 0 1 .912-1.034 2.441 2.441 0 0 1 1.324-.364c.294 0 .569.043.827.128.259.085.493.21.702.375.208.163.382.362.522.597.141.233.237.499.29.798zm.945 4v-.511l3.137-4.682h-3.171v-.625h4.012v.511l-3.137 4.682h3.171V39h-4.012zm-71.652-27.193v-.625h4.364v.625h-1.83V17h-.704v-5.193h-1.83zm5.292 6.83a1.469 1.469 0 0 1-.489-.08l.171-.591c.163.042.307.057.432.045a.518.518 0 0 0 .332-.167c.099-.099.189-.259.27-.48l.125-.341-1.614-4.387h.728l1.204 3.478h.046l1.204-3.478h.727l-1.852 5a1.865 1.865 0 0 1-.31.56c-.123.15-.266.26-.428.332a1.324 1.324 0 0 1-.546.108zm4.021 0v-6h.648v.692h.08c.049-.075.117-.172.204-.29.089-.118.216-.225.381-.317.167-.095.392-.143.676-.143.367 0 .691.092.972.276.28.184.499.444.656.781.157.338.236.735.236 1.194 0 .462-.079.862-.236 1.201a1.856 1.856 0 0 1-.654.784 1.706 1.706 0 0 1-.963.276c-.28 0-.504-.047-.673-.14a1.243 1.243 0 0 1-.389-.32 4.158 4.158 0 0 1-.21-.302h-.057v2.307h-.671zm.659-3.819c0 .33.049.62.145.872.097.25.238.446.424.588.185.14.413.21.681.21.281 0 .515-.073.702-.221.19-.15.332-.35.426-.602.097-.254.145-.536.145-.847a2.29 2.29 0 0 0-.142-.83 1.285 1.285 0 0 0-.423-.587c-.188-.146-.423-.22-.708-.22-.272 0-.501.07-.687.208a1.245 1.245 0 0 0-.421.574c-.094.244-.142.53-.142.855zm6.046 2.273c-.421 0-.783-.093-1.088-.279a1.871 1.871 0 0 1-.702-.784c-.163-.337-.244-.729-.244-1.176 0-.447.081-.84.244-1.181.165-.343.394-.61.688-.802.295-.193.64-.29 1.034-.29.227 0 .451.038.673.114.222.076.423.199.605.37.182.168.327.391.435.67.108.278.162.621.162 1.028v.285h-3.364v-.58h2.682c0-.246-.049-.466-.148-.66a1.11 1.11 0 0 0-.415-.457 1.16 1.16 0 0 0-.63-.167 1.2 1.2 0 0 0-.693.199 1.3 1.3 0 0 0-.446.511c-.105.21-.157.436-.157.676v.386c0 .33.057.61.171.839.115.227.275.4.48.52.204.117.442.176.713.176.176 0 .335-.025.477-.074a1.02 1.02 0 0 0 .372-.227 1.05 1.05 0 0 0 .242-.381l.648.182c-.069.22-.183.412-.344.58-.161.164-.36.293-.597.386a2.212 2.212 0 0 1-.798.136zm5.168-.091v-5.818h3.511v.625h-2.807v1.966h2.625v.625h-2.625v1.977h2.852V17h-3.556z"/><path fill="#fff" stroke="#636363" d="M143.5 20.5h31v31h-31z"/><rect x="145.783" y="22.783" width="26.435" height="26.435" rx="13.217" fill="#fff" stroke="#636363"/><rect x="150.457" y="34.413" width="3.174" height="3.174" rx="1.587" fill="#636363" stroke="#636363"/><rect x="157.414" y="41.37" width="3.174" height="3.174" rx="1.587" fill="#fff" stroke="#636363"/><rect x="164.369" y="34.413" width="3.174" height="3.174" rx="1.587" fill="#636363" stroke="#636363"/><path d="M56.523 23.182h.704v3.852c0 .398-.093.753-.281 1.065a1.97 1.97 0 0 1-.787.736c-.339.178-.737.267-1.193.267-.456 0-.854-.089-1.193-.267a1.99 1.99 0 0 1-.79-.736 2.045 2.045 0 0 1-.278-1.065v-3.852h.704v3.795c0 .284.063.537.188.759.125.22.303.393.534.52.233.125.511.187.835.187.324 0 .602-.062.835-.187.233-.127.411-.3.534-.52a1.52 1.52 0 0 0 .188-.759v-3.795zm5.293 1.454a.892.892 0 0 0-.415-.67c-.242-.16-.54-.239-.892-.239-.257 0-.483.042-.676.125a1.08 1.08 0 0 0-.449.344.825.825 0 0 0-.159.497.71.71 0 0 0 .11.4c.077.11.173.203.29.276.118.072.241.132.37.18.129.045.247.082.355.11l.591.16c.152.039.32.094.506.164.187.07.366.166.537.287.172.12.314.273.426.46.112.188.167.418.167.69 0 .315-.082.599-.247.853a1.682 1.682 0 0 1-.716.605c-.312.15-.692.224-1.139.224-.416 0-.777-.067-1.082-.201a1.725 1.725 0 0 1-.716-.563 1.61 1.61 0 0 1-.293-.838h.727a.91.91 0 0 0 .222.546 1.2 1.2 0 0 0 .494.318c.201.068.417.102.648.102.27 0 .51-.044.725-.13.214-.09.383-.213.508-.37a.875.875 0 0 0 .188-.557.683.683 0 0 0-.162-.471 1.19 1.19 0 0 0-.427-.296 4.479 4.479 0 0 0-.57-.199l-.716-.204c-.455-.131-.815-.318-1.08-.56-.265-.242-.398-.56-.398-.952 0-.326.088-.61.264-.852.179-.244.417-.434.716-.568a2.419 2.419 0 0 1 1.009-.205c.375 0 .708.067 1 .202.292.133.523.314.693.545.172.232.263.494.273.787h-.682zm2.829 3.569l-.046.306a6.188 6.188 0 0 1-.147.694 13.88 13.88 0 0 1-.202.696c-.07.217-.128.39-.173.52h-.512l.097-.48a18.125 18.125 0 0 0 .221-1.418l.035-.319h.727zM72.91 25h-.705a1.464 1.464 0 0 0-.593-.92 1.592 1.592 0 0 0-.486-.24 1.94 1.94 0 0 0-.557-.079c-.352 0-.672.09-.957.267-.285.178-.51.44-.68.787-.166.347-.25.772-.25 1.276s.084.929.25 1.275c.17.347.395.61.68.787.285.178.605.268.957.268.193 0 .379-.027.557-.08.178-.053.34-.132.486-.236a1.497 1.497 0 0 0 .593-.923h.705c-.053.297-.15.563-.29.798a2.18 2.18 0 0 1-1.224.972 2.616 2.616 0 0 1-.827.127c-.496 0-.938-.12-1.324-.363a2.495 2.495 0 0 1-.912-1.034c-.221-.447-.332-.977-.332-1.591s.11-1.144.332-1.591c.222-.447.526-.792.912-1.034a2.439 2.439 0 0 1 1.324-.364c.293 0 .569.043.827.128a2.234 2.234 0 0 1 1.224.972c.14.233.237.499.29.798zm1.377 4h-.739l2.137-5.818h.727L78.548 29h-.738l-1.739-4.898h-.045L74.286 29zm.273-2.273h2.977v.625H74.56v-.625zm5.804 1.477l-.046.307a6.21 6.21 0 0 1-.147.694 13.88 13.88 0 0 1-.202.696c-.07.217-.128.39-.173.52h-.512l.097-.48a18.339 18.339 0 0 0 .221-1.418l.034-.319h.728zm-27.66 6.978h.841l1.978 4.83h.068l1.977-4.83h.841V41h-.659v-4.42h-.057L55.875 41h-.636l-1.819-4.42h-.056V41h-.66v-5.818zm7.459 0l1.5 2.42h.045l1.5-2.42h.83l-1.83 2.909L64.038 41h-.83l-1.5-2.375h-.045L60.163 41h-.83l1.875-2.91-1.875-2.908h.83zm5.7 5.023l-.045.306a6.21 6.21 0 0 1-.147.694 13.88 13.88 0 0 1-.202.696c-.07.217-.128.39-.173.52h-.512l.097-.48a18.339 18.339 0 0 0 .221-1.418l.034-.319h.728zm5.811-5.023h.705v4.159c0 .371-.069.687-.205.946a1.39 1.39 0 0 1-.577.59c-.248.135-.54.203-.877.203a1.99 1.99 0 0 1-.85-.174 1.4 1.4 0 0 1-.585-.5 1.369 1.369 0 0 1-.213-.77h.693c0 .165.04.31.122.432a.84.84 0 0 0 .341.284c.144.069.308.103.492.103a.988.988 0 0 0 .517-.128.809.809 0 0 0 .323-.375c.076-.167.114-.37.114-.611v-4.16zM73.79 41v-5.818h1.966c.457 0 .83.082 1.12.247.291.163.507.383.647.662.14.278.21.589.21.932 0 .342-.07.654-.21.934-.138.28-.352.504-.642.67-.29.166-.66.248-1.113.248h-1.41v-.625h1.387c.313 0 .563-.054.753-.162a.966.966 0 0 0 .412-.437 1.46 1.46 0 0 0 .13-.628 1.44 1.44 0 0 0-.13-.625.932.932 0 0 0-.415-.432c-.191-.106-.445-.16-.761-.16h-1.239V41h-.705zm18.561-29.193v-.625h4.364v.625h-1.83V17h-.704v-5.193h-1.83zm5.292 6.83a1.472 1.472 0 0 1-.489-.08l.17-.591c.164.042.308.057.433.045a.518.518 0 0 0 .332-.167c.099-.099.189-.259.27-.48l.125-.341-1.614-4.387h.728l1.204 3.478h.046l1.204-3.478h.727l-1.852 5a1.89 1.89 0 0 1-.31.56c-.123.15-.266.26-.428.332a1.322 1.322 0 0 1-.546.108zm4.021 0v-6h.648v.692h.08c.049-.075.117-.172.204-.29.089-.118.216-.225.381-.317.167-.095.392-.143.676-.143.367 0 .691.092.972.276.28.184.499.444.656.781.157.338.236.735.236 1.194 0 .462-.079.862-.236 1.201a1.856 1.856 0 0 1-.654.784 1.706 1.706 0 0 1-.963.276c-.28 0-.504-.047-.673-.14a1.255 1.255 0 0 1-.389-.32 4.158 4.158 0 0 1-.21-.302h-.057v2.307h-.671zm.66-3.819c0 .33.048.62.144.872.097.25.238.446.424.588.185.14.413.21.682.21.28 0 .514-.073.701-.221.19-.15.332-.35.426-.602.097-.254.145-.536.145-.847a2.29 2.29 0 0 0-.142-.83 1.285 1.285 0 0 0-.423-.587c-.188-.146-.423-.22-.707-.22-.273 0-.502.07-.688.208a1.237 1.237 0 0 0-.42.574c-.095.244-.142.53-.142.855zm6.045 2.273c-.42 0-.783-.093-1.088-.279a1.871 1.871 0 0 1-.702-.784c-.163-.337-.244-.729-.244-1.176 0-.447.081-.84.244-1.181.165-.343.394-.61.688-.802.295-.193.64-.29 1.034-.29.227 0 .451.038.673.114.222.076.423.199.605.37.182.168.327.391.435.67.108.278.162.621.162 1.028v.285h-3.364v-.58h2.682c0-.246-.049-.466-.148-.66a1.11 1.11 0 0 0-.415-.457 1.16 1.16 0 0 0-.63-.167 1.2 1.2 0 0 0-.693.199 1.3 1.3 0 0 0-.446.511c-.105.21-.157.436-.157.676v.386c0 .33.057.61.171.839.115.227.275.4.48.52.204.117.442.176.713.176.176 0 .335-.025.477-.074a1.02 1.02 0 0 0 .372-.227c.105-.103.185-.23.242-.381l.648.182c-.069.22-.183.412-.344.58-.161.164-.36.293-.597.386a2.208 2.208 0 0 1-.798.136zm5.168-.091v-5.818h2.034c.405 0 .739.07 1.003.21.263.138.459.325.588.56.128.233.193.491.193.775 0 .25-.045.457-.134.62a1.036 1.036 0 0 1-.346.386 1.585 1.585 0 0 1-.463.21V14c.178.011.357.074.537.188.179.113.33.276.451.488.121.212.182.472.182.778 0 .292-.066.555-.199.787-.132.233-.342.418-.628.555-.286.136-.658.204-1.116.204h-2.102zm.704-.625h1.398c.46 0 .787-.089.98-.267a.857.857 0 0 0 .293-.654c0-.196-.051-.378-.151-.545a1.084 1.084 0 0 0-.429-.403 1.345 1.345 0 0 0-.659-.154h-1.432v2.023zm0-2.636h1.307c.212 0 .403-.042.574-.125.172-.084.309-.201.409-.353a.934.934 0 0 0 .153-.534.885.885 0 0 0-.267-.65c-.178-.18-.46-.27-.846-.27h-1.33v1.932z" fill="#636363"/><path fill="#fff" stroke="#636363" d="M89.5 20.5h31v31h-31z"/><path fill="#636363" d="M102.217 42.261h5.565v4.174h-5.565z"/><rect x="102.217" y="39.478" width="5.565" height="5.565" rx="2.783" fill="#636363"/><path fill="#636363" d="M96.652 33.913v-8.348h2.783v8.348zm13.912-.696V26.26h2.783v6.957z"/></svg>