<svg width="44" height="48" fill="none" xmlns="http://www.w3.org/2000/svg"><path d="M29.046 10.93c0-3.84-3.13-6.992-7.055-6.992s-7.055 3.102-7.055 6.991c0 3.84 3.13 6.991 7.055 6.991 3.875 0 7.055-3.15 7.055-6.99zm-7.055 5.267c-2.931 0-5.316-2.363-5.316-5.268 0-2.904 2.385-5.267 5.316-5.267s5.316 2.363 5.316 5.267c0 2.905-2.385 5.268-5.316 5.268z" fill="#40AC6C"/><path d="M43.851 40.566L39.777 21.17c-.596-2.855-3.13-4.923-6.11-4.923H31.58c.944-1.624 1.44-3.446 1.39-5.317C32.97 4.923 28.053 0 21.942 0c-6.11 0-11.029 4.874-11.029 10.93 0 1.87.497 3.691 1.391 5.316h-2.086c-2.932 0-5.515 2.068-6.111 4.923L.13 40.566a6.141 6.141 0 0 0 4.82 7.286A5.46 5.46 0 0 0 6.241 48H37.74c3.428 0 6.26-2.757 6.26-6.203 0-.394-.05-.788-.149-1.23zm-2.633 4.086c-.845 1.034-2.137 1.625-3.478 1.625H6.242c-2.484 0-4.521-2.019-4.521-4.48 0-.295.05-.59.1-.886l4.073-19.348a4.51 4.51 0 0 1 4.422-3.544h3.726c.497 0 .845-.394.845-.887 0-.197-.05-.394-.2-.541a9.044 9.044 0 0 1-1.986-5.662c0-5.07 4.173-9.206 9.29-9.206 5.117 0 9.29 4.135 9.29 9.206a9.044 9.044 0 0 1-1.987 5.662c-.298.394-.248.935.15 1.23.148.099.347.197.546.197h3.726a4.51 4.51 0 0 1 4.422 3.545l4.074 19.397a4.393 4.393 0 0 1-.994 3.692z" fill="#40AC6C"/><path d="M20.7 28.259a.905.905 0 0 0-.05-1.231c-.348-.345-.895-.296-1.242.049l-3.677 4.086c-.149.197-.397.296-.646.296h-1.341v-3.791a.887.887 0 0 0-.894-.886.887.887 0 0 0-.895.886v9.304c0 .493.398.886.895.886a.887.887 0 0 0 .894-.886v-3.79h1.341c.249 0 .497.098.646.295l3.677 4.086c.149.197.397.295.645.295a.96.96 0 0 0 .597-.197c.348-.295.397-.886.05-1.23l-3.677-4.086 3.676-4.086zm8.694 3.249h-1.64a.886.886 0 1 0 0 1.772h1.64c.497 0 .894.394.894.886v1.182a.886.886 0 0 1-.894.886h-3.726a.886.886 0 0 1-.895-.886V29.44c0-.492.398-.886.895-.886h5.465a.887.887 0 1 0 0-1.772h-5.465c-1.441 0-2.634 1.181-2.634 2.609v5.858c0 1.428 1.193 2.61 2.634 2.61h3.726c1.44 0 2.633-1.182 2.633-2.61v-1.181c0-1.428-1.193-2.56-2.633-2.56z" fill="#40AC6C"/></svg>