<svg width="48" height="48" fill="none" xmlns="http://www.w3.org/2000/svg"><path d="M32.776 14.444a.643.643 0 0 0-.454.188L21.13 25.823l-6.44-6.44a.66.66 0 0 0-.91 0l-2.596 2.596a.643.643 0 0 0 0 .908l9.492 9.492a.643.643 0 0 0 .909 0l14.24-14.242a.643.643 0 0 0 0-.909l-2.596-2.596a.643.643 0 0 0-.454-.188zM21.131 31.015l-8.583-8.583 1.69-1.689 6.44 6.442a.641.641 0 0 0 .908 0l11.19-11.191 1.689 1.689-13.334 13.332z" fill="#40AC6C"/><path d="M23.505 6.002a17.503 17.503 0 1 0 17.503 17.503A17.523 17.523 0 0 0 23.505 6.002zm0 33.721a16.217 16.217 0 1 1 16.218-16.218 16.236 16.236 0 0 1-16.218 16.218z" fill="#40AC6C"/><path d="M46.281 25.566a3.277 3.277 0 0 0 0-4.122l-1.053-1.314a2.012 2.012 0 0 1-.361-1.821l.47-1.613a3.317 3.317 0 0 0-1.581-3.814l-1.471-.808a2.013 2.013 0 0 1-1.034-1.542l-.184-1.673a3.277 3.277 0 0 0-2.916-2.916L36.48 5.76a2.011 2.011 0 0 1-1.542-1.034l-.808-1.471a3.277 3.277 0 0 0-3.815-1.581l-1.612.47a2.016 2.016 0 0 1-1.822-.362L25.566.729a3.278 3.278 0 0 0-4.122 0l-1.315 1.053a2.02 2.02 0 0 1-1.82.36l-1.613-.469a3.317 3.317 0 0 0-3.815 1.581l-.808 1.471a2.013 2.013 0 0 1-1.542 1.034l-1.672.184a3.277 3.277 0 0 0-2.916 2.915l-.184 1.673a2.012 2.012 0 0 1-1.033 1.542l-1.472.808a3.278 3.278 0 0 0-1.58 3.815l.47 1.612a2.016 2.016 0 0 1-.362 1.821L.73 21.444a3.277 3.277 0 0 0 0 4.122l1.053 1.314a2.013 2.013 0 0 1 .361 1.821l-.47 1.613a3.318 3.318 0 0 0 1.58 3.815l1.472.808a2.013 2.013 0 0 1 1.034 1.542l.183 1.672a3.277 3.277 0 0 0 2.916 2.916l1.673.184a2.013 2.013 0 0 1 1.542 1.033l.808 1.472a3.276 3.276 0 0 0 3.815 1.58l1.611-.47a2.02 2.02 0 0 1 1.822.362l1.314 1.053a3.277 3.277 0 0 0 4.122 0l1.315-1.053a2.015 2.015 0 0 1 1.82-.361l1.613.47a3.277 3.277 0 0 0 3.815-1.581l.808-1.472a2.013 2.013 0 0 1 1.542-1.033l1.672-.184a3.276 3.276 0 0 0 2.916-2.916l.184-1.672a2.012 2.012 0 0 1 1.033-1.542l1.472-.808a3.279 3.279 0 0 0 1.58-3.815l-.47-1.612a2.017 2.017 0 0 1 .362-1.822l1.054-1.314zm-2.056.512a3.303 3.303 0 0 0-.592 2.984l.47 1.612A2 2 0 0 1 43.14 33l-1.472.808a3.298 3.298 0 0 0-1.693 2.53l-.184 1.673a2.001 2.001 0 0 1-1.78 1.78l-1.672.183a3.3 3.3 0 0 0-2.53 1.693L33 43.14a2.001 2.001 0 0 1-2.327.965l-1.612-.47a3.3 3.3 0 0 0-2.984.59l-1.315 1.054a2 2 0 0 1-2.516 0l-1.314-1.053a3.302 3.302 0 0 0-2.985-.592l-1.61.47a2.003 2.003 0 0 1-2.328-.965l-.808-1.472a3.299 3.299 0 0 0-2.53-1.692l-1.673-.184a2.001 2.001 0 0 1-1.78-1.78l-.183-1.672a3.299 3.299 0 0 0-1.693-2.53L3.87 33a2.024 2.024 0 0 1-.964-2.327l.47-1.612a3.3 3.3 0 0 0-.592-2.984l-1.053-1.315a2 2 0 0 1 0-2.516l1.053-1.314a3.302 3.302 0 0 0 .592-2.985l-.47-1.611a2 2 0 0 1 .965-2.328l1.472-.808a3.298 3.298 0 0 0 1.692-2.53l.184-1.673A2.001 2.001 0 0 1 9 7.22l1.673-.184a3.3 3.3 0 0 0 2.53-1.693l.807-1.471a2.026 2.026 0 0 1 2.325-.966l1.612.47a3.3 3.3 0 0 0 2.984-.591l1.315-1.054a2 2 0 0 1 2.516 0l1.314 1.053a3.304 3.304 0 0 0 2.985.592l1.611-.47A2.003 2.003 0 0 1 33 3.871l.808 1.472a3.297 3.297 0 0 0 2.53 1.693l1.673.183A2.001 2.001 0 0 1 39.79 9l.184 1.673a3.3 3.3 0 0 0 1.693 2.53l1.471.807a2.023 2.023 0 0 1 .965 2.328l-.47 1.611a3.301 3.301 0 0 0 .591 2.985l1.054 1.314a2 2 0 0 1 0 2.516l-1.054 1.315z" fill="#40AC6C"/></svg>