<svg width="47" height="47" fill="none" xmlns="http://www.w3.org/2000/svg"><path d="M46.082 35.947H14.74v-2.769a.918.918 0 0 0-.918-.918h-2.769V.918A.918.918 0 0 0 10.135 0H.918A.918.918 0 0 0 0 .918v45.164c0 .507.411.918.918.918h45.164a.918.918 0 0 0 .918-.918v-9.217a.918.918 0 0 0-.918-.918zM9.217 1.836v2.773H6.448a.918.918 0 0 0 0 1.836h2.77v2.772H7.71a.918.918 0 0 0 0 1.836h1.506v2.773H6.448a.918.918 0 0 0 0 1.836h2.77v2.772H7.71a.918.918 0 0 0 0 1.836h1.506v2.773H6.448a.918.918 0 0 0 0 1.836h2.77v2.772H7.71a.918.918 0 0 0 0 1.836h1.506v2.773h-7.38V1.836h7.381zm-7.381 32.26h11.068v11.068H1.836V34.096zm43.328 11.068H14.74v-7.381h2.772v3.69a.918.918 0 0 0 1.837 0v-3.69h2.772v2.424a.918.918 0 0 0 1.836 0v-2.424h2.773v3.69a.918.918 0 0 0 1.836 0v-3.69h2.772v2.424a.918.918 0 0 0 1.836 0v-2.424h2.773v3.69a.918.918 0 0 0 1.836 0v-3.69h2.772v2.424a.918.918 0 0 0 1.836 0v-2.424h2.773v7.381z" fill="#40AC6C"/><path d="M15.276 26.29l13.402 6.93.015.006a.912.912 0 0 0 .813 0c.049-.023 11.034-5.704 13.417-6.936a.92.92 0 0 0 .497-.815l-.001-15.722c-.017-.626-.55-.822-.56-.83L29.475 2.926a.918.918 0 0 0-.75 0L15.34 8.923c-.01.008-.56.219-.56.846v15.706c0 .359.21.672.496.815zm26.308-1.374l-11.566 5.98v-13.64l11.566-5.98v13.64zm-13.402 5.98l-11.567-5.98V11.277l11.567 5.98v13.64zM29.1 4.77l11.289 5.058-11.29 5.837L17.81 9.828 29.1 4.77z" fill="#40AC6C"/></svg>