<svg width="536" height="520" fill="none" xmlns="http://www.w3.org/2000/svg"><g opacity=".15" filter="url(#filter0_f_1702_8075)"><ellipse cx="268.169" cy="260.226" rx="123.069" ry="111.737" transform="rotate(23.235 268.169 260.226)" fill="#D9D9D9"/></g><path clip-rule="evenodd" d="M315.305 87.38c60.626 14.476 116.073 51.104 140.957 108.322 25.787 59.292 28.511 135.072-13.837 183.97-38.077 43.967-106.336 16.906-164.233 21.643-48.523 3.969-97.403 28.79-138.78 3.145-50.522-31.312-92.294-84.902-89.04-144.345 3.293-60.157 53.973-103.514 104.409-136.398 48.38-31.544 104.406-49.736 160.524-36.337z" stroke="#2B2A2A"/><path clip-rule="evenodd" d="M307.47 118.406c50.569 12.113 96.884 42.488 117.786 89.762 21.659 48.989 24.143 111.514-11.013 151.735-31.611 36.165-88.578 13.648-136.819 17.392-40.43 3.138-81.099 23.477-115.657 2.204-42.195-25.976-77.162-70.305-74.617-119.335 2.575-49.621 44.691-85.247 86.635-112.234 40.233-25.886 86.876-40.737 133.685-29.524z" stroke="#2B2A2A"/><path clip-rule="evenodd" d="M300.354 145.15c39.84 9.48 76.22 33.698 92.451 71.678 16.819 39.356 18.431 89.728-9.537 122.336-25.147 29.319-69.977 11.491-108.067 14.777-31.923 2.754-64.129 19.371-91.282 2.42-33.154-20.697-60.5-56.224-58.219-95.749 2.308-40.001 35.743-68.944 68.993-90.925 31.894-21.085 68.785-33.312 105.661-24.537z" stroke="#2B2A2A"/><path clip-rule="evenodd" d="M287.81 200.161c24.41 5.825 46.729 20.588 56.736 43.662 10.371 23.912 11.45 54.479-5.614 74.213-15.343 17.744-42.824 6.844-66.139 8.768-19.541 1.612-39.23 11.636-55.886 1.301-20.337-12.619-37.146-34.227-35.822-58.205 1.34-24.267 21.758-41.768 42.076-55.044 19.489-12.736 42.054-20.087 64.649-14.695z" stroke="#2B2A2A"/><defs><filter id="filter0_f_1702_8075" x=".762" y=".624" width="534.814" height="519.203" filterUnits="userSpaceOnUse" color-interpolation-filters="sRGB"><feFlood flood-opacity="0" result="BackgroundImageFix"/><feBlend in="SourceGraphic" in2="BackgroundImageFix" result="shape"/><feGaussianBlur stdDeviation="73" result="effect1_foregroundBlur_1702_8075"/></filter></defs></svg>